<?xml version="1.0" encoding="UTF-8" ?>
<!DOCTYPE svg PUBLIC "-//W3C//DTD SVG 1.1//EN" "http://www.w3.org/Graphics/SVG/1.1/DTD/svg11.dtd">
<svg width="388pt" height="130pt" viewBox="0 0 388 130" version="1.1" xmlns="http://www.w3.org/2000/svg">
<g id="fill:ffffffff">
</g>
<g id="fill:fc0f3aff">
<path fill="#fc0f3a" opacity="1.00" d=" M 111.17 0.00 L 113.81 0.00 C 121.27 0.66 127.34 6.58 129.49 13.55 C 133.47 26.78 131.81 40.98 128.04 54.06 C 119.63 84.03 99.62 110.85 72.60 126.50 C 69.66 128.27 66.37 129.61 62.91 129.84 C 56.06 130.13 49.39 125.34 47.36 118.81 C 46.32 115.67 46.76 112.32 47.10 109.10 C 48.54 95.39 50.09 81.69 51.56 67.97 C 52.24 61.31 53.74 54.71 53.60 47.98 C 53.51 41.97 49.39 36.41 43.97 34.02 C 37.51 31.75 29.26 33.27 25.21 39.16 C 21.41 44.55 20.77 52.59 25.13 57.86 C 27.82 61.55 32.92 62.62 35.18 66.71 C 39.31 73.33 33.90 83.36 25.96 83.15 C 18.04 82.71 11.84 76.74 7.22 70.81 C 3.03 65.58 1.16 59.01 0.00 52.52 L 0.00 48.28 C 0.53 38.38 4.25 28.45 11.52 21.53 C 19.66 13.33 31.80 9.91 43.13 11.39 C 59.32 13.01 73.50 26.74 75.26 42.99 C 76.73 59.80 72.98 76.42 71.02 93.02 C 70.41 94.92 71.96 97.10 74.04 96.47 C 93.25 81.50 106.39 58.94 109.84 34.81 C 103.20 32.85 96.42 28.23 95.30 20.90 C 93.32 11.08 101.06 0.60 111.17 0.00 Z" />
<path fill="#fc0f3a" opacity="1.00" d=" M 151.50 18.63 C 159.08 15.30 168.27 22.78 166.35 30.92 C 165.22 39.44 153.27 42.73 147.59 36.53 C 142.12 31.35 144.31 21.01 151.50 18.63 Z" />
<path fill="#fc0f3a" opacity="1.00" d=" M 229.88 24.85 C 232.43 17.62 242.59 16.02 248.02 20.88 C 251.19 23.57 252.18 28.18 250.94 32.07 C 245.32 51.36 239.84 70.68 234.19 89.96 C 233.47 92.70 231.87 95.80 233.50 98.53 C 235.54 101.42 239.82 101.33 242.64 99.73 C 248.58 96.11 252.38 89.89 254.46 83.39 C 257.78 73.40 260.75 63.29 263.36 53.09 C 264.32 48.96 267.76 45.72 271.96 45.07 C 277.61 43.40 283.63 47.55 285.04 53.04 C 285.84 56.31 284.30 59.47 283.51 62.57 C 280.55 73.40 277.27 84.15 274.37 94.99 C 273.32 99.53 279.36 102.38 282.82 99.91 C 291.62 94.02 295.34 83.46 299.06 74.03 C 303.31 64.96 309.02 56.15 317.48 50.50 C 328.91 42.52 345.97 43.60 356.02 53.37 C 358.18 53.35 360.30 52.95 362.37 52.33 C 360.33 42.82 371.44 34.51 380.01 38.80 C 387.86 41.80 389.68 53.13 383.94 58.93 C 378.17 65.16 369.27 66.12 361.62 68.65 C 361.90 83.64 356.39 99.79 343.85 108.82 C 335.92 114.63 325.40 115.00 316.06 113.27 C 308.54 111.94 301.52 107.22 298.46 100.07 C 293.41 107.21 285.93 113.10 277.04 114.19 C 268.43 115.96 258.12 113.36 253.60 105.25 C 248.02 111.15 240.19 114.81 232.02 114.77 C 224.42 115.38 216.03 112.46 212.11 105.55 C 204.82 112.00 194.65 115.11 185.00 114.10 C 178.28 113.45 172.51 108.49 170.39 102.16 C 165.85 107.57 160.11 112.51 153.00 113.93 C 145.15 115.80 135.88 114.87 129.85 109.04 C 124.99 104.10 124.57 96.52 126.29 90.15 C 130.00 77.45 133.57 64.71 137.26 52.01 C 138.84 46.79 144.80 43.51 150.07 45.05 C 155.67 46.30 159.89 52.28 158.39 58.00 C 155.07 70.38 151.38 82.66 147.94 95.01 C 146.81 98.04 150.06 101.13 153.03 100.73 C 155.63 100.89 157.69 99.04 159.47 97.41 C 166.30 90.44 169.96 81.19 173.11 72.13 C 177.85 60.97 185.54 49.28 197.88 45.87 C 206.14 44.30 215.19 45.86 222.13 50.72 C 224.77 42.12 227.27 33.47 229.88 24.85 M 202.22 63.44 C 198.78 65.03 196.36 68.13 194.16 71.12 C 190.61 76.32 187.83 82.66 188.99 89.08 C 189.40 92.58 192.35 95.80 195.98 95.89 C 200.86 95.97 205.91 93.92 208.82 89.90 C 212.39 85.00 214.87 79.06 214.77 72.92 C 214.38 69.94 213.81 66.61 211.41 64.54 C 208.95 62.27 205.17 62.00 202.22 63.44 M 332.52 64.56 C 325.20 66.57 320.97 73.77 318.64 80.50 C 317.08 84.81 315.55 90.39 318.74 94.35 C 321.04 97.27 325.22 97.13 328.53 96.55 C 334.89 94.41 339.15 88.45 341.44 82.40 C 342.78 78.20 344.29 73.53 342.69 69.20 C 341.30 65.19 336.36 63.51 332.52 64.56 Z" />
<path fill="#fc0f3a" opacity="1.00" d=" M 277.30 18.41 C 282.84 15.61 290.35 18.59 292.34 24.49 C 294.67 29.88 291.50 36.93 285.81 38.57 C 280.74 40.52 274.23 38.13 272.07 33.03 C 269.46 27.82 271.93 20.73 277.30 18.41 Z" />
</g>
</svg>
